<svg width="48" height="48" viewBox="0 0 48 48" fill="none" xmlns="http://www.w3.org/2000/svg">
<rect width="48" height="48" rx="24" fill="#F5F6F8"/>
<path d="M20 17.75C19.59 17.75 19.25 17.41 19.25 17V14C19.25 13.59 19.59 13.25 20 13.25C20.41 13.25 20.75 13.59 20.75 14V17C20.75 17.41 20.41 17.75 20 17.75Z" fill="#233B82"/>
<path d="M28 17.75C27.59 17.75 27.25 17.41 27.25 17V14C27.25 13.59 27.59 13.25 28 13.25C28.41 13.25 28.75 13.59 28.75 14V17C28.75 17.41 28.41 17.75 28 17.75Z" fill="#233B82"/>
<path opacity="0.2" d="M33 20.5V29C33 32 31.5 34 28 34H20C16.5 34 15 32 15 29V20.5C15 17.5 16.5 15.5 20 15.5H28C31.5 15.5 33 17.5 33 20.5Z" fill="#233B82"/>
<path d="M28 23.75H20C19.59 23.75 19.25 23.41 19.25 23C19.25 22.59 19.59 22.25 20 22.25H28C28.41 22.25 28.75 22.59 28.75 23C28.75 23.41 28.41 23.75 28 23.75Z" fill="#233B82"/>
<path d="M24 28.75H20C19.59 28.75 19.25 28.41 19.25 28C19.25 27.59 19.59 27.25 20 27.25H24C24.41 27.25 24.75 27.59 24.75 28C24.75 28.41 24.41 28.75 24 28.75Z" fill="#233B82"/>
</svg>
