<svg width="67" height="96" viewBox="0 0 67 96" fill="none" xmlns="http://www.w3.org/2000/svg">
<path opacity="0.4" d="M-37.748 96C-24.0418 96 -10.4698 93.2841 2.1931 88.0074C14.856 82.7306 26.3618 74.9964 36.0536 65.2462C45.7453 55.4961 53.4333 43.921 58.6784 31.1818C63.9236 18.4426 66.6232 4.7888 66.6232 -9L56.4865 -9C56.4865 3.44961 54.0491 15.7773 49.3133 27.2792C44.5776 38.7812 37.6363 49.2321 28.8858 58.0353C20.1354 66.8385 9.74701 73.8216 -1.68605 78.5858C-13.1191 83.3501 -25.373 85.8022 -37.748 85.8022L-37.748 96Z" fill="url(#paint0_linear_188_912)"/>
<defs>
<linearGradient id="paint0_linear_188_912" x1="14.4376" y1="-9" x2="14.4376" y2="96" gradientUnits="userSpaceOnUse">
<stop stop-color="white" stop-opacity="0"/>
<stop offset="1" stop-color="white"/>
</linearGradient>
</defs>
</svg>
