<svg width="96" height="126" viewBox="0 0 96 126" fill="none" xmlns="http://www.w3.org/2000/svg">
<path opacity="0.4" d="M-42.7188 126C-24.5743 126 -6.60755 122.405 10.1557 115.419C26.919 108.434 42.1505 98.1952 54.9805 85.2878C67.8106 72.3805 77.988 57.0573 84.9315 40.193C91.8751 23.3287 95.4489 5.25374 95.4489 -13L82.0298 -13C82.0298 3.4809 78.8031 19.8004 72.5339 35.0268C66.2647 50.2532 57.0758 64.0882 45.4918 75.742C33.9078 87.3957 20.1557 96.64 5.02047 102.947C-10.1147 109.254 -26.3365 112.5 -42.7187 112.5L-42.7188 126Z" fill="url(#paint0_linear_188_913)"/>
<defs>
<linearGradient id="paint0_linear_188_913" x1="26.3651" y1="-13" x2="26.3651" y2="126" gradientUnits="userSpaceOnUse">
<stop stop-color="white" stop-opacity="0"/>
<stop offset="1" stop-color="white"/>
</linearGradient>
</defs>
</svg>
