<svg width="23" height="49" viewBox="0 0 23 49" fill="none" xmlns="http://www.w3.org/2000/svg">
<path opacity="0.4" d="M-25.8203 49C-19.4241 49 -13.0905 47.7326 -7.18111 45.2701C-1.27175 42.8076 4.09762 39.1983 8.62044 34.6482C13.1433 30.0982 16.731 24.6964 19.1787 18.7515C21.6264 12.8065 22.8863 6.43477 22.8863 0L-0.421661 2.78974e-06C-0.421661 3.35549 -1.07862 6.67813 -2.35502 9.7782C-3.63142 12.8783 -5.50227 15.6951 -7.86075 18.0678C-10.2192 20.4404 -13.0192 22.3226 -16.1007 23.6067C-19.1822 24.8907 -22.4849 25.5517 -25.8203 25.5517L-25.8203 49Z" fill="url(#paint0_linear_188_915)"/>
<defs>
<linearGradient id="paint0_linear_188_915" x1="-1.46702" y1="0" x2="-1.46702" y2="49" gradientUnits="userSpaceOnUse">
<stop stop-color="white" stop-opacity="0"/>
<stop offset="1" stop-color="white"/>
</linearGradient>
</defs>
</svg>
