<svg width="44" height="71" viewBox="0 0 44 71" fill="none" xmlns="http://www.w3.org/2000/svg">
<path opacity="0.4" d="M-32.7783 71C-22.7271 71 -12.7743 69.0083 -3.48814 65.1387C5.79799 61.2691 14.2356 55.5973 21.3429 48.4472C28.4502 41.2971 34.088 32.8087 37.9344 23.4666C41.7809 14.1245 43.7606 4.11178 43.7606 -6L36.327 -6C36.327 3.12971 34.5396 12.17 31.0667 20.6048C27.5938 29.0395 22.5036 36.7035 16.0865 43.1592C9.66951 49.6149 2.05139 54.7358 -6.33285 58.2296C-14.7171 61.7234 -23.7033 63.5216 -32.7783 63.5216L-32.7783 71Z" fill="url(#paint0_linear_188_914)"/>
<defs>
<linearGradient id="paint0_linear_188_914" x1="5.49114" y1="-6" x2="5.49114" y2="71" gradientUnits="userSpaceOnUse">
<stop stop-color="white" stop-opacity="0"/>
<stop offset="1" stop-color="white"/>
</linearGradient>
</defs>
</svg>
