<svg width="48" height="48" viewBox="0 0 48 48" fill="none" xmlns="http://www.w3.org/2000/svg">
<rect width="48" height="48" rx="24" fill="#F5F6F8"/>
<path opacity="0.2" d="M28.19 14H19.82C16.18 14 14.01 16.17 14.01 19.81V28.18C14.01 31.82 16.18 33.99 19.82 33.99H28.19C31.83 33.99 34 31.82 34 28.18V19.81C34 16.17 31.83 14 28.19 14Z" fill="#233B82"/>
<path d="M25.92 21.28L25.97 24.23L28.6 24.19C28.79 24.19 28.93 24.36 28.9 24.54L28.55 26.45C28.52 26.59 28.4 26.69 28.26 26.7L26.01 26.74L26.13 33.99L23.13 34.04L23.01 26.79L21.31 26.82C21.14 26.82 21.01 26.69 21.01 26.52L20.98 24.62C20.98 24.45 21.11 24.32 21.28 24.32L22.98 24.29L22.93 21.04C22.9 19.38 24.22 18.02 25.88 17.99L28.58 17.95C28.75 17.95 28.88 18.08 28.88 18.25L28.92 20.65C28.92 20.82 28.79 20.95 28.62 20.95L26.22 20.99C26.05 20.98 25.92 21.12 25.92 21.28Z" fill="#233B82"/>
</svg>
