<svg width="180" height="172" viewBox="0 0 180 172" fill="none" xmlns="http://www.w3.org/2000/svg">
<g opacity="0.2">
<path d="M384.353 168.372C384.353 267.682 298.456 348.243 192.427 348.243C86.3975 348.243 0.5 267.682 0.5 168.372C0.5 69.0613 86.3975 -11.5 192.427 -11.5C298.456 -11.5 384.353 69.0613 384.353 168.372Z" stroke="white"/>
<path d="M358.337 168.372C358.337 254.214 284.088 323.858 192.427 323.858C100.765 323.858 26.5156 254.214 26.5156 168.372C26.5156 82.5294 100.765 12.8861 192.427 12.8861C284.088 12.8861 358.337 82.5294 358.337 168.372Z" stroke="white"/>
<path d="M328.734 168.371C328.734 238.888 267.738 296.107 192.427 296.107C117.116 296.107 56.1201 238.888 56.1201 168.371C56.1201 97.8542 117.116 40.6347 192.427 40.6347C267.738 40.6347 328.734 97.8542 328.734 168.371Z" stroke="white"/>
<path d="M299.129 168.371C299.129 223.562 251.388 268.358 192.426 268.358C133.465 268.358 85.7236 223.562 85.7236 168.371C85.7236 113.18 133.465 68.3843 192.426 68.3843C251.388 68.3843 299.129 113.18 299.129 168.371Z" stroke="white"/>
<path d="M270.422 168.371C270.422 208.701 235.533 241.449 192.426 241.449C149.32 241.449 114.431 208.701 114.431 168.371C114.431 128.041 149.32 95.2931 192.426 95.2931C235.533 95.2931 270.422 128.041 270.422 168.371Z" stroke="white"/>
<path d="M244.406 168.372C244.406 195.234 221.165 217.064 192.426 217.064C163.688 217.064 140.446 195.234 140.446 168.372C140.446 141.51 163.688 119.679 192.426 119.679C221.165 119.679 244.406 141.51 244.406 168.372Z" stroke="white"/>
<path d="M223.592 168.371C223.592 184.458 209.67 197.553 192.427 197.553C175.184 197.553 161.262 184.458 161.262 168.371C161.262 152.285 175.184 139.19 192.427 139.19C209.67 139.19 223.592 152.285 223.592 168.371Z" stroke="white"/>
</g>
</svg>
