<svg width="48" height="48" viewBox="0 0 48 48" fill="none" xmlns="http://www.w3.org/2000/svg">
<rect width="48" height="48" rx="24" fill="#F5F6F8"/>
<path opacity="0.2" d="M28.19 14H19.81C16.17 14 14 16.17 14 19.81V28.18C14 31.83 16.17 34 19.81 34H28.18C31.82 34 33.99 31.83 33.99 28.19V19.81C34 16.17 31.83 14 28.19 14Z" fill="#233B82"/>
<path d="M24.0001 27.88C26.143 27.88 27.8801 26.1429 27.8801 24C27.8801 21.8571 26.143 20.12 24.0001 20.12C21.8573 20.12 20.1201 21.8571 20.1201 24C20.1201 26.1429 21.8573 27.88 24.0001 27.88Z" fill="#233B82"/>
<path d="M29 19.5C28.73 19.5 28.48 19.4 28.29 19.21C28.2 19.11 28.13 19 28.08 18.88C28.03 18.76 28 18.63 28 18.5C28 18.37 28.03 18.24 28.08 18.12C28.13 17.99 28.2 17.89 28.29 17.79C28.52 17.56 28.87 17.45 29.19 17.52C29.26 17.53 29.32 17.55 29.38 17.58C29.44 17.6 29.5 17.63 29.56 17.67C29.61 17.7 29.66 17.75 29.71 17.79C29.8 17.89 29.87 17.99 29.92 18.12C29.97 18.24 30 18.37 30 18.5C30 18.63 29.97 18.76 29.92 18.88C29.87 19 29.8 19.11 29.71 19.21C29.61 19.3 29.5 19.37 29.38 19.42C29.26 19.47 29.13 19.5 29 19.5Z" fill="#233B82"/>
</svg>
