<svg width="146" height="33" viewBox="0 0 146 33" fill="none" xmlns="http://www.w3.org/2000/svg">
<path d="M32 1H0V33H32V1Z" fill="#DA1B24"/>
<path d="M25.8437 26.6923L25.8438 7L6.15144 7L6.15144 26.6923L25.8437 26.6923Z" fill="white"/>
<path fill-rule="evenodd" clip-rule="evenodd" d="M90.5366 6.52475H92.9519L94.9634 11.3852L96.9857 6.52475H99.401V16.4708H96.9713L96.9857 13.6071L97.1335 11.5991L97.0506 11.5841L95.7961 14.9995H94.1379L92.8581 11.5841L92.7896 11.5991L92.9519 13.6071V16.4708H90.5366V6.52475ZM39.4444 10.6983H43.1286V13.0441H39.4444V16.4708H37.0039V6.52475H43.6549V8.9118H39.4444V10.6983ZM49.3795 10.4281H53.2512V12.605H49.3795V14.095H53.59V16.467H46.939V6.521H53.59V8.88553H49.3795V10.4281ZM60.7313 11.145C60.9837 11.145 61.1928 11.0887 61.3658 10.9761C61.5352 10.8635 61.665 10.7246 61.7515 10.5557C61.838 10.3868 61.8813 10.2067 61.8813 10.0077C61.8813 9.80882 61.838 9.62867 61.7515 9.45977C61.665 9.29088 61.5388 9.15201 61.3658 9.03941C61.1964 8.92681 60.9837 8.87051 60.7313 8.87051H59.3146V11.145H60.7313ZM59.3146 16.4708H56.8741V6.52475H60.6917C61.1855 6.52475 61.6434 6.5848 62.0687 6.70866C62.4905 6.82876 62.8618 7.02393 63.1826 7.2829C63.5035 7.54563 63.7522 7.88342 63.9361 8.30003C64.1199 8.71663 64.2209 9.21581 64.2389 9.79381C64.2389 10.7209 64.0731 11.449 63.7414 11.9782C63.4098 12.5074 62.9483 12.8639 62.3643 13.0516L64.9671 16.4633H61.957L59.7436 13.3031H59.3146V16.4708ZM72.1084 11.145C72.3607 11.145 72.5734 11.0887 72.7428 10.9761C72.9123 10.8635 73.042 10.7246 73.1286 10.5557C73.2151 10.3868 73.2583 10.2067 73.2583 10.0077C73.2583 9.80882 73.2151 9.62867 73.1286 9.45977C73.042 9.29088 72.9159 9.15201 72.7428 9.03941C72.5734 8.92681 72.3607 8.87051 72.1084 8.87051H70.6916V11.145H72.1084ZM70.6916 16.4708H68.2511V6.52475H72.0687C72.5626 6.52475 73.0204 6.5848 73.4458 6.70866C73.8676 6.82876 74.2389 7.02393 74.5597 7.2829C74.8805 7.54563 75.1293 7.88342 75.3167 8.30003C75.5006 8.71663 75.6015 9.21581 75.6195 9.79381C75.6195 10.7209 75.4537 11.449 75.1185 11.9782C74.7868 12.5074 74.3254 12.8639 73.7414 13.0516L76.3441 16.4633H73.334L71.1206 13.3031H70.6916V16.4708ZM82.0687 13.1417C82.0687 13.4119 82.1372 13.6371 82.2706 13.8173C82.4039 13.9937 82.5734 14.1288 82.7753 14.2189C82.9771 14.3089 83.197 14.354 83.4313 14.354C83.6657 14.354 83.882 14.3089 84.0874 14.2151C84.2893 14.1213 84.4623 13.9862 84.5993 13.8135C84.7363 13.6409 84.8084 13.4157 84.8084 13.1454V6.52475H87.2489V13.1417C87.2489 13.7234 87.1408 14.2339 86.9173 14.673C86.6974 15.1121 86.4054 15.4799 86.0485 15.7689C85.688 16.0617 85.2807 16.2756 84.8264 16.422C84.3722 16.5684 83.9072 16.6397 83.4313 16.6397C82.9555 16.6397 82.4869 16.5684 82.029 16.422C81.5712 16.2756 81.1639 16.0579 80.807 15.7689C80.4501 15.4799 80.1653 15.1121 79.949 14.673C79.7327 14.2339 79.6246 13.7234 79.6246 13.1417V6.52475H82.0651V13.1417H82.0687Z" fill="#233B82"/>
<path fill-rule="evenodd" clip-rule="evenodd" d="M43.0166 20.8473V21.9283C42.7534 21.7781 42.5011 21.6468 42.2595 21.5417C42.018 21.4366 41.7765 21.354 41.5314 21.2977C41.3944 21.2715 41.2538 21.2489 41.1168 21.2302C40.9798 21.2114 40.8356 21.2039 40.6914 21.2039C39.92 21.2039 39.2783 21.4591 38.7664 21.9658C38.2545 22.4762 37.9986 23.118 37.9986 23.895C37.9986 24.6869 38.2509 25.3287 38.7556 25.8241C39.2603 26.3195 39.92 26.5673 40.7311 26.5673C40.9221 26.5673 41.1168 26.5485 41.3151 26.5147C41.5133 26.4809 41.7116 26.4284 41.9099 26.3608C42.1081 26.2933 42.3064 26.2107 42.5047 26.1131C42.7029 26.0155 42.8976 25.9029 43.0887 25.7716V26.8638C42.757 27.0477 42.4001 27.1978 42.0144 27.3104C41.6287 27.423 41.1709 27.4793 40.6445 27.4793C39.6496 27.4793 38.8673 27.2203 38.2978 26.7024C37.7318 26.1844 37.3497 25.6102 37.1586 24.9872C37.1045 24.8145 37.0649 24.6456 37.0397 24.4767C37.0144 24.3078 37 24.1464 37 23.9888C37 22.9154 37.3497 22.0296 38.0454 21.3278C38.7412 20.6259 39.628 20.2769 40.7022 20.2769C41.0519 20.2769 41.4088 20.3219 41.7765 20.4157C42.1442 20.5096 42.5587 20.6559 43.0202 20.8549V20.8473H43.0166ZM51.553 20.3181L54.5739 27.3892H53.5825L52.6813 25.3174H49.8082L48.9574 27.3892H47.9661L50.868 20.3181H51.553ZM51.1961 21.8645L50.1867 24.4092H52.2848L51.1961 21.8645ZM59.4585 20.3594H61.5674C62.3064 20.3669 62.8507 20.5659 63.1968 20.9637C63.5428 21.3578 63.7159 21.8344 63.7159 22.3899C63.7159 22.9379 63.532 23.407 63.1679 23.7861C62.8002 24.169 62.227 24.3566 61.4412 24.3566H60.4318V27.3855H59.4621V20.3594H59.4585ZM60.4282 21.2677V23.4446H61.5277C61.8918 23.4521 62.1802 23.3583 62.3929 23.1668C62.6092 22.9754 62.7137 22.7014 62.7137 22.3524C62.7137 22.3299 62.7137 22.3111 62.7137 22.2961C62.7137 22.2773 62.7137 22.2623 62.7137 22.2473C62.6921 22.0033 62.5984 21.7819 62.4325 21.5792C62.2631 21.3766 61.9747 21.2715 61.5674 21.2715H60.4282V21.2677ZM69.7252 20.3594V27.3892H68.7555V20.3594H69.7252ZM80.4822 20.3594V21.2677H78.1463V27.3892H77.1765V21.2677H74.8406V20.3594H80.4822ZM87.4361 20.3181L90.457 27.3892H89.4656L88.5644 25.3174H85.6949L84.8442 27.3892H83.8528L86.7547 20.3181H87.4361ZM87.0792 21.8645L86.0698 24.4092H88.1679L87.0792 21.8645ZM96.3474 20.3594V26.4809H99.3971V27.3892H95.3777V20.3594H96.3474Z" fill="#233B82"/>
<path d="M109.62 5.20215V5.10938C109.62 4.41927 109.693 3.79264 109.84 3.22949C109.99 2.66309 110.185 2.16667 110.426 1.74023C110.667 1.3138 110.927 0.960612 111.207 0.680664C111.49 0.397461 111.765 0.19401 112.032 0.0703125L112.286 0.77832C112.101 0.918294 111.915 1.11035 111.729 1.35449C111.547 1.59538 111.381 1.89323 111.231 2.24805C111.082 2.60286 110.961 3.01628 110.87 3.48828C110.782 3.96029 110.738 4.4974 110.738 5.09961V5.21191C110.738 5.81413 110.782 6.35286 110.87 6.82812C110.961 7.30013 111.082 7.71354 111.231 8.06836C111.381 8.42318 111.547 8.72428 111.729 8.97168C111.915 9.21908 112.101 9.41439 112.286 9.55762L112.032 10.2461C111.765 10.1191 111.49 9.91569 111.207 9.63574C110.927 9.35579 110.667 9.0026 110.426 8.57617C110.185 8.14974 109.99 7.65495 109.84 7.0918C109.693 6.52539 109.62 5.89551 109.62 5.20215ZM116.88 4.83105H115.063L115.054 3.88379H116.611C116.878 3.88379 117.101 3.84635 117.28 3.77148C117.459 3.69661 117.594 3.58757 117.686 3.44434C117.78 3.30111 117.827 3.12695 117.827 2.92188C117.827 2.69401 117.783 2.50846 117.695 2.36523C117.611 2.22201 117.477 2.11784 117.295 2.05273C117.113 1.98438 116.882 1.9502 116.602 1.9502H115.498V8H114.155V0.890625H116.602C117.005 0.890625 117.365 0.929688 117.681 1.00781C118 1.08268 118.27 1.19987 118.491 1.35938C118.713 1.51888 118.88 1.71908 118.994 1.95996C119.111 2.20085 119.17 2.4873 119.17 2.81934C119.17 3.1123 119.102 3.38249 118.965 3.62988C118.831 3.87402 118.625 4.07259 118.345 4.22559C118.068 4.37858 117.716 4.46647 117.29 4.48926L116.88 4.83105ZM116.821 8H114.668L115.229 6.94531H116.821C117.088 6.94531 117.308 6.90137 117.48 6.81348C117.656 6.72559 117.786 6.60514 117.871 6.45215C117.959 6.2959 118.003 6.11686 118.003 5.91504C118.003 5.69368 117.964 5.50163 117.886 5.33887C117.811 5.17611 117.69 5.05078 117.524 4.96289C117.362 4.875 117.147 4.83105 116.88 4.83105H115.483L115.493 3.88379H117.271L117.578 4.25C117.988 4.25326 118.322 4.33464 118.579 4.49414C118.84 4.65365 119.032 4.85872 119.155 5.10938C119.279 5.36003 119.341 5.63021 119.341 5.91992C119.341 6.37565 119.242 6.75814 119.043 7.06738C118.848 7.37663 118.561 7.60938 118.184 7.76562C117.809 7.92188 117.355 8 116.821 8ZM126.215 6.94531V8H122.436V6.94531H126.215ZM122.846 0.890625V8H121.503V0.890625H122.846ZM125.722 3.8252V4.85547H122.436V3.8252H125.722ZM126.2 0.890625V1.9502H122.436V0.890625H126.2ZM131.297 0.890625V8H129.959V0.890625H131.297ZM133.504 0.890625V1.9502H127.776V0.890625H133.504ZM137.727 1.96973L135.7 8H134.279L136.936 0.890625H137.844L137.727 1.96973ZM139.421 8L137.385 1.96973L137.263 0.890625H138.176L140.847 8H139.421ZM139.328 5.3584V6.41797H135.515V5.3584H139.328ZM144.82 5.10938V5.20215C144.82 5.87923 144.744 6.49935 144.591 7.0625C144.441 7.62565 144.243 8.12207 143.995 8.55176C143.751 8.98145 143.484 9.33952 143.194 9.62598C142.908 9.91243 142.626 10.1191 142.35 10.2461L142.096 9.55762C142.281 9.41764 142.465 9.22559 142.647 8.98145C142.83 8.7373 142.996 8.4362 143.146 8.07812C143.299 7.72005 143.419 7.30339 143.507 6.82812C143.598 6.35286 143.644 5.81413 143.644 5.21191V5.09961C143.644 4.4974 143.596 3.95866 143.502 3.4834C143.411 3.00814 143.289 2.5931 143.136 2.23828C142.983 1.88021 142.815 1.5791 142.633 1.33496C142.451 1.08757 142.271 0.895508 142.096 0.758789L142.35 0.0703125C142.626 0.19401 142.908 0.400716 143.194 0.69043C143.484 0.976888 143.751 1.33659 143.995 1.76953C144.243 2.19922 144.441 2.69564 144.591 3.25879C144.744 3.81868 144.82 4.43555 144.82 5.10938Z" fill="#233B82"/>
</svg>
