<svg width="32" height="32" viewBox="0 0 32 32" fill="none" xmlns="http://www.w3.org/2000/svg">
<rect width="32" height="32" rx="16" fill="#F5F6F8"/>
<path opacity="0.2" d="M19.3335 21.6668H12.6668C10.6668 21.6668 9.3335 20.6668 9.3335 18.3335V13.6668C9.3335 11.3335 10.6668 10.3335 12.6668 10.3335H19.3335C21.3335 10.3335 22.6668 11.3335 22.6668 13.6668V18.3335C22.6668 20.6668 21.3335 21.6668 19.3335 21.6668Z" fill="#233B82"/>
<path d="M16.0024 17C15.418 17 14.8266 16.8314 14.3744 16.4877L12.1967 14.8663C11.9741 14.6977 11.9323 14.3929 12.1132 14.1854C12.2941 13.9778 12.6211 13.9389 12.8437 14.1075L15.0214 15.7289C15.5502 16.1245 16.4477 16.1245 16.9764 15.7289L19.1541 14.1075C19.3767 13.9389 19.7107 13.9714 19.8846 14.1854C20.0655 14.3929 20.0307 14.7042 19.8011 14.8663L17.6235 16.4877C17.1782 16.8314 16.5868 17 16.0024 17Z" fill="#233B82"/>
</svg>
