<svg width="48" height="48" viewBox="0 0 48 48" fill="none" xmlns="http://www.w3.org/2000/svg">
<rect width="48" height="48" rx="24" fill="#F5F6F8"/>
<path opacity="0.2" d="M31.8801 32.94C30.9301 33.64 29.6801 34 28.1901 34H19.8101C19.5701 34 19.3301 33.99 19.1001 33.96L26.0001 27.06L31.8801 32.94Z" fill="#233B82"/>
<path opacity="0.2" d="M34.0001 19.81V28.19C34.0001 29.68 33.6401 30.93 32.9401 31.88L27.0601 26L33.9601 19.1C33.9901 19.33 34.0001 19.57 34.0001 19.81Z" fill="#233B82"/>
<path opacity="0.2" d="M27.06 26L32.94 31.88C32.65 32.3 32.3 32.65 31.88 32.94L26 27.06L19.1 33.96C18.46 33.92 17.88 33.79 17.35 33.59C15.21 32.81 14 30.91 14 28.19V19.81C14 16.17 16.17 14 19.81 14H28.19C30.91 14 32.81 15.21 33.59 17.35C33.79 17.88 33.92 18.46 33.96 19.1L27.06 26Z" fill="#233B82"/>
<path d="M27.0601 26L32.9401 31.88C32.6501 32.3 32.3001 32.65 31.8801 32.94L26.0001 27.06L19.1001 33.96C18.4601 33.92 17.8801 33.79 17.3501 33.59L17.7401 33.2L33.5901 17.35C33.7901 17.88 33.9201 18.46 33.9601 19.1L27.0601 26Z" fill="#233B82"/>
<path d="M24.24 19.93C23.86 18.28 22.4001 17.54 21.1201 17.53C19.8401 17.53 18.3801 18.27 18.0001 19.92C17.5801 21.75 18.7 23.28 19.71 24.24C20.11 24.62 20.6101 24.8 21.1201 24.8C21.6301 24.8 22.1301 24.61 22.5301 24.24C23.5401 23.28 24.66 21.75 24.24 19.93ZM21.1501 21.49C20.6001 21.49 20.1501 21.04 20.1501 20.49C20.1501 19.94 20.5901 19.49 21.1501 19.49H21.1601C21.7101 19.49 22.1601 19.94 22.1601 20.49C22.1601 21.04 21.7001 21.49 21.1501 21.49Z" fill="#233B82"/>
</svg>
