<svg width="48" height="48" viewBox="0 0 48 48" fill="none" xmlns="http://www.w3.org/2000/svg">
<rect width="48" height="48" rx="24" fill="#F5F6F8"/>
<path opacity="0.2" d="M29 32.5H19C16 32.5 14 31 14 27.5V20.5C14 17 16 15.5 19 15.5H29C32 15.5 34 17 34 20.5V27.5C34 31 32 32.5 29 32.5Z" fill="#233B82"/>
<path d="M24 24.87C23.16 24.87 22.31 24.61 21.66 24.08L18.53 21.58C18.21 21.32 18.15 20.85 18.41 20.53C18.67 20.21 19.14 20.15 19.46 20.41L22.59 22.91C23.35 23.52 24.64 23.52 25.4 22.91L28.53 20.41C28.85 20.15 29.33 20.2 29.58 20.53C29.84 20.85 29.79 21.33 29.46 21.58L26.33 24.08C25.69 24.61 24.84 24.87 24 24.87Z" fill="#233B82"/>
<circle cx="33" cy="13" r="9" fill="#DA1B24"/>
<path d="M28.495 10.125V8.981H30.783V17H29.518V10.125H28.495ZM33.1987 15.295C33.9027 14.6863 34.4564 14.1877 34.8597 13.799C35.2704 13.403 35.6114 12.9923 35.8827 12.567C36.154 12.1417 36.2897 11.7163 36.2897 11.291C36.2897 10.851 36.1834 10.5063 35.9707 10.257C35.7654 10.0077 35.439 9.883 34.9917 9.883C34.559 9.883 34.2217 10.0223 33.9797 10.301C33.745 10.5723 33.6204 10.939 33.6057 11.401H32.3957C32.4177 10.565 32.667 9.927 33.1437 9.487C33.6277 9.03967 34.24 8.816 34.9807 8.816C35.78 8.816 36.4034 9.036 36.8507 9.476C37.3054 9.916 37.5327 10.5027 37.5327 11.236C37.5327 11.764 37.397 12.2737 37.1257 12.765C36.8617 13.249 36.5427 13.6853 36.1687 14.074C35.802 14.4553 35.3327 14.899 34.7607 15.405L34.2657 15.845H37.7527V16.89H32.4067V15.977L33.1987 15.295Z" fill="white"/>
</svg>
