<svg width="32" height="32" viewBox="0 0 32 32" fill="none" xmlns="http://www.w3.org/2000/svg">
<rect width="32" height="32" rx="16" fill="#F5F6F8"/>
<path opacity="0.2" d="M16.4145 14.5793L18.9653 12.8478C19.161 13.1024 19.3488 13.3623 19.5288 13.6276C20.073 14.4376 20.5454 15.2678 20.946 16.1183C21.3401 16.9675 21.6295 17.7966 21.8022 18.5966C21.9737 19.4032 21.9942 20.147 21.864 20.828C21.7788 21.2733 21.6188 21.6838 21.3864 22.0466C21.1529 22.416 20.8339 22.7351 20.4242 22.9961C19.9262 23.3284 19.429 23.4437 18.9445 23.351C18.7611 23.3159 18.5853 23.2415 18.4366 23.1316C18.2814 23.0205 18.1534 22.8738 18.0681 22.681L16.9587 20.2492C16.8721 20.063 16.8158 19.8961 16.7844 19.7407C16.7518 19.592 16.7454 19.4482 16.7692 19.3238C16.7993 19.1666 16.8752 19.0182 16.9957 18.8852C17.1096 18.7509 17.2641 18.6175 17.4513 18.4904L18.0479 18.0684C18.1337 18.0101 18.1827 17.9313 18.2028 17.8265C18.2128 17.7741 18.215 17.727 18.2119 17.6721C18.2023 17.616 18.1902 17.573 18.1846 17.5312C18.1081 17.2925 17.959 16.9721 17.736 16.5765C17.5065 16.1797 17.2586 15.7725 16.9845 15.3603C16.7927 15.086 16.6061 14.8195 16.4145 14.5793Z" fill="#233B82"/>
<path d="M10.265 10.6061C10.3001 10.4228 10.3691 10.2392 10.4697 10.0684C10.4994 10.0197 10.529 9.97111 10.5653 9.92374C10.7217 9.70931 10.9083 9.51425 11.1383 9.34105C11.5268 9.04885 11.9292 8.86113 12.36 8.77386C12.3665 8.77511 12.3743 8.76982 12.3809 8.77107C12.7973 8.68784 13.2326 8.6829 13.6844 8.76934C14.3523 8.89713 15.036 9.19084 15.7276 9.65576C16.4192 10.1207 17.0895 10.6969 17.732 11.3832C17.951 11.622 18.1701 11.8607 18.3735 12.1101L15.8227 13.8415C15.6656 13.669 15.522 13.5329 15.3983 13.4345C15.368 13.4152 15.3325 13.388 15.2904 13.3596C15.2418 13.3299 15.1907 13.3134 15.1317 13.3021C15.0204 13.2808 14.9278 13.3038 14.842 13.362L14.2504 13.7579C14.0554 13.8903 13.8744 13.9846 13.7088 14.0344C13.5406 14.0972 13.3813 14.1143 13.2176 14.0829C13.0931 14.0591 12.9672 14.0079 12.8344 13.9214C12.7016 13.8349 12.5673 13.721 12.4249 13.5783L10.552 11.6249C10.4043 11.4745 10.3127 11.3144 10.272 11.1369C10.2379 10.9607 10.2299 10.7895 10.265 10.6061Z" fill="#233B82"/>
</svg>
