<svg width="48" height="48" viewBox="0 0 48 48" fill="none" xmlns="http://www.w3.org/2000/svg">
<rect width="48" height="48" rx="24" fill="#F5F6F8"/>
<path opacity="0.2" d="M19.6501 32.91C19.6201 32.91 19.5801 32.93 19.5501 32.93C17.6101 31.97 16.0301 30.38 15.0601 28.44C15.0601 28.41 15.0801 28.37 15.0801 28.34C16.3001 28.7 17.5601 28.97 18.8101 29.18C19.0301 30.44 19.2901 31.69 19.6501 32.91Z" fill="#233B82"/>
<path opacity="0.2" d="M32.94 28.45C31.95 30.44 30.3 32.05 28.29 33.02C28.67 31.75 28.99 30.47 29.2 29.18C30.46 28.97 31.7 28.7 32.92 28.34C32.91 28.38 32.94 28.42 32.94 28.45Z" fill="#233B82"/>
<path opacity="0.2" d="M33.02 19.71C31.76 19.33 30.49 19.02 29.2 18.8C28.99 17.51 28.68 16.23 28.29 14.98C30.36 15.97 32.03 17.64 33.02 19.71Z" fill="#233B82"/>
<path opacity="0.2" d="M19.65 15.09C19.29 16.31 19.03 17.55 18.82 18.81C17.53 19.01 16.25 19.33 14.98 19.71C15.95 17.7 17.56 16.05 19.55 15.06C19.58 15.06 19.62 15.09 19.65 15.09Z" fill="#233B82"/>
<path d="M27.49 18.59C25.17 18.33 22.83 18.33 20.51 18.59C20.76 17.22 21.08 15.85 21.53 14.53C21.55 14.45 21.54 14.39 21.55 14.31C22.34 14.12 23.15 14 24 14C24.84 14 25.66 14.12 26.44 14.31C26.45 14.39 26.45 14.45 26.47 14.53C26.92 15.86 27.24 17.22 27.49 18.59Z" fill="#233B82"/>
<path d="M18.59 27.49C17.21 27.24 15.85 26.92 14.53 26.47C14.45 26.45 14.39 26.46 14.31 26.45C14.12 25.66 14 24.85 14 24C14 23.16 14.12 22.34 14.31 21.56C14.39 21.55 14.45 21.55 14.53 21.53C15.86 21.09 17.21 20.76 18.59 20.51C18.34 22.83 18.34 25.17 18.59 27.49Z" fill="#233B82"/>
<path d="M33.9999 24C33.9999 24.85 33.8799 25.66 33.6899 26.45C33.6099 26.46 33.5499 26.45 33.4699 26.47C32.1399 26.91 30.7799 27.24 29.4099 27.49C29.6699 25.17 29.6699 22.83 29.4099 20.51C30.7799 20.76 32.1499 21.08 33.4699 21.53C33.5499 21.55 33.6099 21.56 33.6899 21.56C33.8799 22.35 33.9999 23.16 33.9999 24Z" fill="#233B82"/>
<path d="M27.49 29.41C27.24 30.79 26.92 32.15 26.47 33.47C26.45 33.55 26.45 33.61 26.44 33.69C25.66 33.88 24.84 34 24 34C23.15 34 22.34 33.88 21.55 33.69C21.54 33.61 21.55 33.55 21.53 33.47C21.09 32.14 20.76 30.79 20.51 29.41C21.67 29.54 22.83 29.63 24 29.63C25.17 29.63 26.34 29.54 27.49 29.41Z" fill="#233B82"/>
<path d="M27.7633 27.7633C25.2622 28.0789 22.7378 28.0789 20.2367 27.7633C19.9211 25.2622 19.9211 22.7378 20.2367 20.2367C22.7378 19.9211 25.2622 19.9211 27.7633 20.2367C28.0789 22.7378 28.0789 25.2622 27.7633 27.7633Z" fill="#233B82"/>
</svg>
