<svg width="48" height="48" viewBox="0 0 48 48" fill="none" xmlns="http://www.w3.org/2000/svg">
<rect width="48" height="48" rx="24" fill="#F5F6F8"/>
<path opacity="0.2" d="M18.9401 32.63C20.4301 33.5 22.1601 34 24.0001 34C29.6301 34 34.31 29.03 33.98 23.41C33.64 17.61 28.37 13.14 22.3 14.14C18.12 14.83 14.77 18.22 14.12 22.4C13.74 24.82 14.2401 27.11 15.3301 29L14.4401 32.31C14.2401 33.06 14.93 33.74 15.67 33.53L18.9401 32.63Z" fill="#233B82"/>
<path d="M29 27.17C29 27.35 28.96 27.54 28.87 27.72C28.78 27.9 28.67 28.07 28.53 28.23C28.28 28.5 28.01 28.7 27.71 28.82C27.41 28.95 27.08 29.01 26.73 29.01C26.22 29.01 25.67 28.89 25.1 28.64C24.52 28.39 23.95 28.06 23.38 27.65C22.8 27.23 22.26 26.76 21.74 26.25C21.22 25.73 20.76 25.18 20.34 24.61C19.93 24.04 19.6 23.47 19.36 22.9C19.12 22.33 19 21.78 19 21.26C19 20.92 19.06 20.59 19.18 20.29C19.3 19.98 19.49 19.7 19.76 19.45C20.08 19.13 20.43 18.98 20.8 18.98C20.94 18.98 21.08 19.01 21.21 19.07C21.34 19.13 21.46 19.22 21.55 19.35L22.7 21C22.79 21.13 22.86 21.24 22.9 21.35C22.95 21.46 22.97 21.56 22.97 21.66C22.97 21.78 22.93 21.9 22.86 22.02C22.79 22.14 22.7 22.26 22.58 22.38L22.2 22.78C22.14 22.84 22.12 22.9 22.12 22.98C22.12 23.02 22.13 23.06 22.14 23.1C22.16 23.14 22.17 23.17 22.18 23.2C22.27 23.37 22.43 23.58 22.65 23.84C22.88 24.1 23.12 24.37 23.38 24.63C23.65 24.9 23.91 25.14 24.18 25.37C24.44 25.59 24.66 25.74 24.83 25.83C24.86 25.84 24.89 25.86 24.92 25.87C24.96 25.89 25 25.89 25.05 25.89C25.14 25.89 25.2 25.86 25.26 25.8L25.64 25.42C25.77 25.29 25.89 25.2 26 25.14C26.12 25.07 26.23 25.03 26.36 25.03C26.46 25.03 26.56 25.05 26.67 25.1C26.78 25.15 26.9 25.21 27.02 25.3L28.68 26.48C28.81 26.57 28.9 26.68 28.96 26.8C28.97 26.91 29 27.03 29 27.17Z" fill="#233B82"/>
</svg>
