<svg width="34" height="34" viewBox="0 0 34 34" fill="none" xmlns="http://www.w3.org/2000/svg">
<rect width="34" height="34" rx="12" fill="white"/>
<path d="M17 27C22.5228 27 27 22.5228 27 17C27 11.4772 22.5228 7 17 7C11.4772 7 7 11.4772 7 17C7 22.5228 11.4772 27 17 27Z" fill="#233B82"/>
<path d="M16.3409 19.5227H17.7045V19.4545C17.7273 18.0455 18.0909 17.4318 19.0909 16.8068C20.0909 16.1989 20.6818 15.3239 20.6818 14.0682C20.6818 12.2955 19.3864 11 17.3864 11C15.5455 11 14.0852 12.1364 14 14.0682H15.4318C15.517 12.7273 16.4545 12.1818 17.3864 12.1818C18.4545 12.1818 19.3182 12.8864 19.3182 14C19.3182 14.9034 18.8011 15.5511 18.1364 15.9545C17.0227 16.6307 16.358 17.2898 16.3409 19.4545V19.5227ZM17.0682 22.8864C17.6307 22.8864 18.0909 22.4261 18.0909 21.8636C18.0909 21.3011 17.6307 20.8409 17.0682 20.8409C16.5057 20.8409 16.0455 21.3011 16.0455 21.8636C16.0455 22.4261 16.5057 22.8864 17.0682 22.8864Z" fill="white"/>
</svg>
