<svg width="48" height="48" viewBox="0 0 48 48" fill="none" xmlns="http://www.w3.org/2000/svg">
<rect width="48" height="48" rx="24" fill="#F5F6F8"/>
<path opacity="0.2" d="M31.34 26.49L30.34 24.83C30.13 24.46 29.94 23.76 29.94 23.35V20.82C29.94 17.56 27.29 14.9 24.02 14.9C20.75 14.9 18.1 17.56 18.1 20.82V23.35C18.1 23.76 17.91 24.46 17.7 24.82L16.69 26.49C16.29 27.16 16.2 27.9 16.45 28.58C16.69 29.25 17.26 29.77 18 30.02C19.94 30.68 21.98 31 24.02 31C26.06 31 28.1 30.68 30.04 30.03C30.74 29.8 31.28 29.27 31.54 28.58C31.8 27.89 31.73 27.13 31.34 26.49Z" fill="#233B82"/>
<path d="M26.25 15.32C25.56 15.05 24.81 14.9 24.02 14.9C23.24 14.9 22.49 15.04 21.8 15.32C22.23 14.51 23.08 14 24.02 14C24.97 14 25.81 14.51 26.25 15.32Z" fill="#233B82"/>
<path d="M26.83 32.01C26.41 33.17 25.3 34 24 34C23.21 34 22.43 33.68 21.88 33.11C21.56 32.81 21.32 32.41 21.18 32C21.31 32.02 21.44 32.03 21.58 32.05C21.81 32.08 22.05 32.11 22.29 32.13C22.86 32.18 23.44 32.21 24.02 32.21C24.59 32.21 25.16 32.18 25.72 32.13C25.93 32.11 26.14 32.1 26.34 32.07C26.5 32.05 26.66 32.03 26.83 32.01Z" fill="#233B82"/>
</svg>
